<?xml version="1.0" standalone="no"?>
<!DOCTYPE svg PUBLIC "-//W3C//DTD SVG 20010904//EN"
 "http://www.w3.org/TR/2001/REC-SVG-20010904/DTD/svg10.dtd">
<svg version="1.0" xmlns="http://www.w3.org/2000/svg"
 width="70.000000pt" height="70.000000pt" viewBox="0 0 70.000000 70.000000"
 preserveAspectRatio="xMidYMid meet">
<metadata>
Created by potrace 1.11, written by Peter Selinger 2001-2013
</metadata>
<g transform="translate(0.000000,70.000000) scale(0.100000,-0.100000)"
fill="#000000" stroke="none">
<path d="M110 688 c0 -5 -4 -7 -9 -4 -4 3 -23 -6 -41 -19 -19 -14 -30 -25 -24
-25 5 0 3 -4 -4 -9 -18 -11 -18 -71 0 -107 17 -36 69 -68 120 -73 7 -1 19 -33
15 -42 -1 -3 6 -13 15 -22 17 -18 17 -72 -2 -107 -6 -11 -5 -21 2 -28 22 -22
-22 -66 -67 -68 -21 -2 -41 -8 -45 -14 -4 -6 -10 -10 -14 -8 -3 1 -15 -11 -25
-29 -16 -26 -18 -38 -10 -67 13 -46 43 -66 99 -66 40 0 48 4 68 35 19 26 23
43 19 73 -5 32 -2 41 19 57 14 11 41 19 60 18 19 0 34 4 34 8 0 5 3 8 8 7 4 0
15 2 25 7 9 4 23 3 30 -3 6 -5 24 -12 40 -16 15 -3 27 -12 28 -19 2 -30 9 -48
28 -73 12 -15 21 -24 21 -20 0 4 13 0 28 -8 16 -8 37 -13 48 -11 10 2 24 4 30
4 16 1 74 62 68 72 -2 4 0 10 6 14 6 4 8 11 5 16 -4 5 -1 9 5 9 14 0 -22 70
-49 94 -31 28 -86 30 -137 5 -28 -13 -51 -18 -62 -13 -9 4 -23 8 -30 10 -19 4
-42 25 -42 39 0 20 -48 62 -79 68 -23 5 -32 16 -49 62 -20 52 -21 58 -6 80 19
28 21 83 5 113 -6 11 -24 30 -40 41 -31 22 -91 35 -91 19z"/>
</g>
</svg>
